<svg height="130" viewBox="269.4 -155.2 663.19 130" width="663.19" xmlns="http://www.w3.org/2000/svg"><g fill="#000"><path d="m360.03-115.64c-3.59 0-6.76.97-9.43 2.68-3.04-10.53-12.23-16.49-26.17-16.49h-22.03v7.67h22.64c11.56 0 18.38 6.27 18.38 17.22s-6.82 17.22-18.38 17.22h-.18l1.28-1.89c2.8-4.2 5.36-8.34 5.36-12.23 0-8.03-5.11-14.12-15.09-14.12-8.64 0-15.16 6.63-15.16 14.43h8.22c0-3.9 2.56-6.76 6.94-6.76 4.69 0 6.88 2.74 6.88 6.7 0 3.04-1.95 6.09-4.08 9.19l-3.29 4.75h-13.51v7.67h8.28l-14.43 21.12h34.57v-7.73h-20.39l9.19-13.45h4.81c.79 0 1.58 0 2.37-.06l24.16 31.53h10.41l-7.97-10.35 15.16-22.16c3.9-5.48 8.46-11.44 8.46-18.32-.08-9.07-7.02-16.62-17-16.62zm-11.75 50.52-12.48-16.13c4.56-1.46 8.28-3.9 10.96-7.24 2.98 3.77 7.67 6.15 13.33 6.15h.43zm11.75-24.83c-5.23 0-8.64-3.96-8.64-9.01 0-.43 0-.79.06-1.22v-.24c.61-4.32 3.83-7.55 8.52-7.55 5.23 0 8.64 3.96 8.64 9.01.06 5.05-3.35 9.01-8.58 9.01z"/><path d="m334.1-155.2c-35.67 0-64.7 29.03-64.7 64.7s29.03 64.7 64.7 64.7 64.7-29.03 64.7-64.76c0-35.67-29.03-64.64-64.7-64.64zm0 121.73c-31.47 0-57.03-25.56-57.03-57.03s25.56-57.03 57.03-57.03 57.03 25.56 57.03 57.03a57.1 57.1 0 0 1 -57.03 57.03zm142.03-57.42c3.12-2.93 5.11-7.1 5.11-11.74s-1.99-8.8-5.11-11.74c-2.84-2.65-6.63-4.26-12.5-4.26h-20.92v57.37h11.08v-25.37h3.98l20.45 25.37h13.63l-21.49-26.32a14.92 14.92 0 0 0 5.77-3.31zm-7.58-7.28c-.95 1.04-2.37 1.7-5.59 1.7h-9.18v-12.31h9.18c3.22 0 4.64.76 5.59 1.8a6.87 6.87 0 0 1 0 8.81zm41.94 11.07h17.61v-9.84h-17.61v-11.84h23.29v-9.84h-34.37v57.36h35.22v-9.84h-24.14zm38.62 25.84h11.08v-25.84h17.6v-9.84h-17.6v-11.84h23.28v-9.84h-34.36zm46.01-57.36h11.08v57.37h-11.08zm66.64 37.39-32-37.39h-7.76v57.36h11.08v-37.39l31.99 37.39h7.77v-57.36h-11.08zm39-5.87h17.61v-9.84h-17.61v-11.84h23.29v-9.84h-34.36v57.36h35.21v-9.84h-24.14zm72.04-3.79c3.12-2.93 5.11-7.1 5.11-11.74s-1.99-8.8-5.11-11.74c-2.84-2.65-6.63-4.26-12.5-4.26h-20.92v57.37h11.08v-25.37h3.98l20.35 25.37h13.73l-21.49-26.32a15.61 15.61 0 0 0 5.77-3.31zm-7.67-7.28c-.95 1.04-2.37 1.7-5.59 1.7h-9.18v-12.31h9.18c3.22 0 4.64.76 5.59 1.8a6.87 6.87 0 0 1 1.61 4.45 6.07 6.07 0 0 1 -1.61 4.36zm46.39-.29-12.69-20.16h-12.59l19.69 31.43v25.93h11.08v-25.93l19.59-31.43h-12.59zm63.04 12.69c3.98-5.21 6.25-9.66 6.25-16.76 0-10.51-8.9-18.08-18.74-18.08h-.38c-9.84 0-18.08 7.29-18.74 17.89h11.08a8.1 8.1 0 0 1 7.86-7.86 8.03 8.03 0 0 1 7.86 7.86c0 3.03-.38 6.15-4.54 11.45l-24.61 30.01h42.31v-10.03h-20.35zm37.02-34.84a20.48 20.48 0 0 0 -20.35 20.54 19.86 19.86 0 0 0 20.07 20.16h.76l-10.89 18.65h12.21l13.54-23.19c3.03-5.21 5.68-10.32 5.68-16.09-.01-12.31-10.33-20.07-21.02-20.07zm.28 30.77a10.35 10.35 0 0 1 -10.32-10.32c0-5.68 4.64-10.32 10.32-10.32s10.32 4.64 10.32 10.32-4.64 10.32-10.32 10.32z"/></g></svg>
